<?xml version="1.0" encoding="iso-8859-1"?>

<svg version="1.1" xmlns="http://www.w3.org/2000/svg" xmlns:xlink="http://www.w3.org/1999/xlink" x="0px" y="0px"
	 viewBox="0 0 31.997 32" style="enable-background:new 0 0 31.997 32;" xml:space="preserve">
<g id="Layer_10">
	<path style="fill:#66CCFF;" d="M15.983,4c-6.62,0.002-11.998,5.38-12,12c0.002,6.62,5.38,11.998,12,12
		c6.62-0.002,11.998-5.38,12-12C27.981,9.38,22.602,4.002,15.983,4z M23.05,23.067C21.236,24.88,18.741,26,15.983,26
		c-2.759,0-5.253-1.12-7.067-2.933C7.102,21.253,5.983,18.759,5.983,16c0-2.759,1.12-5.253,2.933-7.067
		C10.73,7.12,13.224,6,15.983,6C18.741,6,21.236,7.12,23.05,8.933c1.813,1.814,2.932,4.309,2.933,7.067
		C25.982,18.759,24.863,21.253,23.05,23.067z"/>
	<path style="fill:#66CCFF;" d="M15.983,10c-3.311,0.002-5.998,2.689-6,6c0.002,3.311,2.689,5.998,6,6c3.311-0.002,5.998-2.689,6-6
		C21.981,12.689,19.294,10.002,15.983,10z M15.983,20c-2.203-0.004-3.996-1.797-4-4c0.004-2.203,1.797-3.996,4-4
		c2.203,0.004,3.996,1.797,4,4C19.979,18.203,18.185,19.996,15.983,20z"/>
	<circle style="fill:#66CCFF;" cx="15.983" cy="16" r="2"/>
	<path style="fill:#4E5F80;" d="M15.99,0C7.164,0.002,0.002,7.174,0,16c0.002,8.826,7.01,15.998,16.01,16
		c9-0.002,15.984-7.174,15.986-16C31.995,7.174,24.815,0.002,15.99,0z M25.892,25.895C23.353,28.432,20.01,30,16.01,30
		c-4,0-7.37-1.568-9.908-4.105C3.565,23.356,1.99,19.862,1.99,16c0-3.862,1.565-7.356,4.102-9.895C8.63,3.568,12.123,2,15.984,2
		c3.862,0,7.355,1.568,9.894,4.105c2.537,2.539,4.104,6.033,4.105,9.895C29.983,19.862,28.429,23.356,25.892,25.895z"/>
</g>
<g id="Layer_1">
</g>
</svg>
